<svg id="Layer_1" data-name="Layer 1" xmlns="http://www.w3.org/2000/svg" viewBox="0 0 600.14 478.03"><defs><style>.cls-1{fill:none;}.cls-1,.cls-7{stroke:#211b5a;}.cls-1,.cls-3,.cls-4,.cls-7{stroke-miterlimit:10;stroke-width:0.5px;}.cls-2{fill:#211b5a;}.cls-10,.cls-3,.cls-4,.cls-7{fill:#fff;}.cls-3,.cls-4{stroke:#010101;}.cls-4{opacity:0.45;}.cls-5{fill:#7e7ab9;}.cls-6{fill:#e4e2f1;}.cls-8{fill:#5d3594;}.cls-9{fill:#f05874;}</style></defs><line class="cls-1" y1="455.37" x2="64.64" y2="455.37"/><path class="cls-1" d="M113.12,476.71V272.12H52.82a24,24,0,0,0-24,24V492.56a24,24,0,0,0,24,24h185a24,24,0,0,0,24-24V476.71Z" transform="translate(0.14 -61.03)"/><rect class="cls-2" x="56.38" width="200.15" height="433.26" rx="9.07"/><rect class="cls-3" x="61.08" y="28.32" width="190.76" height="376.62"/><line class="cls-4" x1="129.03" y1="419.47" x2="183.89" y2="419.47"/><rect class="cls-5" x="73.71" y="98.29" width="82.38" height="69.28"/><rect class="cls-6" x="73.71" y="72.74" width="164.91" height="11.78"/><rect class="cls-6" x="73.71" y="181.99" width="82.38" height="69.28"/><rect class="cls-6" x="73.71" y="265.69" width="82.38" height="69.28"/><rect class="cls-6" x="73.71" y="354.42" width="156.62" height="6.88"/><rect class="cls-6" x="73.71" y="368.7" width="96.15" height="6.88"/><rect class="cls-6" x="169.86" y="98.29" width="68.75" height="69.28"/><rect class="cls-6" x="169.86" y="181.99" width="68.75" height="69.28"/><rect class="cls-6" x="169.86" y="265.69" width="68.75" height="69.28"/><path class="cls-2" d="M275.27,179a14.81,14.81,0,0,1,5.74-4.63,15.06,15.06,0,0,1,14.41,1.06,19,19,0,0,1,7.34,9.44,3.75,3.75,0,0,0,.81,1.51,3.61,3.61,0,0,0,2.34.64c1.13.06,2.25.16,3.37.32,11.19,1.59,22.06,9.46,27.64,19.24,4.35,7.64,5.15,17.3,1.24,25.28A23.76,23.76,0,0,1,322,244.62c-6.08,1.24-12.4-.13-18.23-2.25a68.94,68.94,0,0,1-25.4-16.07,34.13,34.13,0,0,1-9.63-17c-1.4-7,.64-14.57,2.86-21.23C272.52,185.14,273.5,181.54,275.27,179Z" transform="translate(0.14 -61.03)"/><path class="cls-7" d="M245.57,448.35a96.28,96.28,0,0,0-1.16,17.6c0,5.38,6.69,63.91,7.39,63.48,5.85-3.53,7.6-9.44,9.35-15.78,4.1-14.91,8.28-30.37,9.3-45.82.7-10.49.08-25.54-11.37-30.6C250.74,433.54,247.12,440.11,245.57,448.35Z" transform="translate(0.14 -61.03)"/><path class="cls-7" d="M321.36,463.57c3.76-7.61,12-11.61,17.45-4.82,6.4,7.95,7.79,29.13,9.82,39.12q2.87,14.16,4.76,28.5c.11.8.76,3.23-.16,3.74s-5-2.92-5.62-3.54c-11.81-10.92-22.65-26.2-26.87-41.91-1.73-6.42-2.47-13.43,0-19.62C320.91,464.54,321.12,464.05,321.36,463.57Z" transform="translate(0.14 -61.03)"/><path class="cls-5" d="M274.88,477c-1.35,12.69-2.69,21.53-3.82,21.5a154.2,154.2,0,0,1-39.57-6.24c2-.08,3.64-70.86,3.84-75.91,1.61-39.7,5.15-76.37,12.47-115.58,2.82-15.14,12.27-44.75,32.44-27.52,6.43,5.49,7.47,14.91,7.69,23.36A243.05,243.05,0,0,1,285,338.17c-2.35,16.46-2.09,33.73-3.28,50.34C281.33,394.6,278.09,446.75,274.88,477Z" transform="translate(0.14 -61.03)"/><path class="cls-5" d="M359,492.72c-11.48-43.06-23.22-99.24-33.22-142.67-3.85-16.7-8.12-33.29-13.1-49.7-6-19.86-22.23-17.55-28.62,0-7.12,19.52-5.51,41.16-2.58,61.33a425,425,0,0,0,12.27,56.87c6.9,23.9,19.78,60.17,27.08,84.29C333.8,500.57,346.25,495.88,359,492.72Z" transform="translate(0.14 -61.03)"/><path class="cls-7" d="M215,257.29a80.06,80.06,0,0,0,25-2.59,25.11,25.11,0,0,0,8.88-3.85,15,15,0,0,0,5.82-12.13c-.09-3.68-1.95-9.11-5.44-11s-8.85-.89-12.56.12c-11.2,3-22.44,5-34,3.09-10-1.69-20.06-4.76-28.71-10.22-3.72-2.34-7.74-5.41-9.7-9.39-2.1-4.27-4-8.7-6.5-12.79-.52-.86-2.75-4-3.9-3.86-1.71.26,1.45,7.3,2.07,8.38a4.94,4.94,0,0,0-5.36,3.27,8.08,8.08,0,0,0,.83,6.59,24.12,24.12,0,0,0,4.39,5.24c3.21,3.16,4.94,6.9,7.7,10.41C176.32,244.9,193.87,256.09,215,257.29Z" transform="translate(0.14 -61.03)"/><path class="cls-8" d="M279.44,211.56a1.27,1.27,0,0,1,0,.47l-.27-.12Z" transform="translate(0.14 -61.03)"/><path class="cls-9" d="M239.34,241.39q-.63-7.92-.86-15.88a1.85,1.85,0,0,1,.1-.78,1.68,1.68,0,0,1,.71-.66,84.8,84.8,0,0,1,35.57-12.49,11.88,11.88,0,0,1,3.21.06,4.85,4.85,0,0,1,1.06.27l-.42.48c.15,0,.31.07.46.12a1.26,1.26,0,0,0,.23-.48,2.69,2.69,0,0,1,.46.28c1.52,1.18,1.09,3.56.45,5.43a69.86,69.86,0,0,1-11.64,21.52,43.93,43.93,0,0,1-16.21,12.19c-3.71,1.71-8.48,2.94-11.48,5.8Q240,249.34,239.34,241.39Z" transform="translate(0.14 -61.03)"/><path class="cls-9" d="M311.65,288.64c.7-18.76,3.56-38.28-4.29-56-2.51-5.67-5.35-15.07-10.74-18.53-6.69-4.29-16.62-2.78-23.36.63-12.79,6.49-15.89,23.34-20,36a336.17,336.17,0,0,0-11.33,45.07c4.35,3,12.12,3.93,17.13,5.28q10.21,2.74,20.48,5.24c3.18.77,29.74,5.46,38.51,7.84C314.75,305.88,311.32,297.61,311.65,288.64Z" transform="translate(0.14 -61.03)"/><path class="cls-7" d="M321.88,259.84c-4-2.78-8.39-5.62-10.35-10.1a12.19,12.19,0,0,1,9.81-17,18.31,18.31,0,0,1,9.12,1.74c9.28,4,16.4,11.71,22.64,19.66,7,8.88,13.43,18.83,6.66,29.86-4.56,7.44-12.44,11.85-20.49,14.46a49.14,49.14,0,0,1-14.13,2.39c-4.46.1-9.24.56-13.65.33a8.62,8.62,0,0,1-6.48-3c-1.47-2-1.48-5.1.43-6.65,1.48-1.19,3.6-1.16,5.44-.68s3.56,1.34,5.43,1.66c6.84,1.16,15.2-6.09,20-10.19,2.87-2.45,5.26-5.92,2.09-9A134.06,134.06,0,0,0,322,259.94Z" transform="translate(0.14 -61.03)"/><path class="cls-9" d="M287,212c23.61,2.38,50.38,17.12,63.65,36-4.72,3.61-14.17,10.89-19,14.35a61.65,61.65,0,0,1-7.38,5.09c-2.09,1.06.82-2.16-1-.45-7.75-6.66-19.87-9.93-27-17.28-4.65-4.8-9.94-10.54-11.89-17.11S287.07,218.57,287,212Z" transform="translate(0.14 -61.03)"/><path class="cls-2" d="M258.88,528.81a50.16,50.16,0,0,1,.33-6.67h-9.85a45.78,45.78,0,0,0-1.68,4.32,10.66,10.66,0,0,1-2.94,4.13c-2.81,2.39-6.67,2.63-10.09,3.51-1.25.33-3.62.61-4.31,1.9-.86,1.62.8,2.43,2.15,2.49l2.44.11a178.5,178.5,0,0,0,18.65.06,7.21,7.21,0,0,0,2.77-.56C259.52,536.54,258.8,531.63,258.88,528.81Z" transform="translate(0.14 -61.03)"/><path class="cls-7" d="M278.69,207.78v-.09c.21-3.45-3.52-5.48-4.67-8.7a16.06,16.06,0,0,1-.68-8.89c1.08-4.31,3.56-10.51,8.45-11.4,7.52-1.36,11.45,7.17,11,13.35-.25,3.16-1.17,6.23-1.45,9.38-.38,4.16.36,8.34.49,12.52.13,4-3.41,6.55-7,7.36-3.25.73-8.56.65-7.79-3.67A87.45,87.45,0,0,0,278.69,207.78Z" transform="translate(0.14 -61.03)"/><path class="cls-2" d="M372.28,537.29c-.37.64-1.58,1-2.82,1.18-6.75.85-13.74-.17-20.6-.06-1.88,0-3.38.45-3.72-1.79-.25-1.59.37-3.1.58-4.64a14.82,14.82,0,0,0-.62-5.65,9.47,9.47,0,0,1-.55-2.86l5.14.5c.63,0,3.77-.38,4.09-.06a19.31,19.31,0,0,0,5.08,5.61,34.39,34.39,0,0,0,9.49,4.47,10.46,10.46,0,0,1,2.73,1.22C372.31,536.08,372.57,536.77,372.28,537.29Z" transform="translate(0.14 -61.03)"/><path class="cls-2" d="M276.83,172.66a11.6,11.6,0,0,1,8,1.43c2.92,1.58,5.75,3.54,8.59,5.19,3,1.75,4.35,5.06,4.18,8.56-.1,1.94-1.15,6.75-3.73,6.93-3,.2-3.76-4.84-4.64-6.82-2.05-4.57-4-4.56-8.71-4.94a10.55,10.55,0,0,1-5.92-2c-1.63-1.35-2.52-3.76-1.59-5.66a5,5,0,0,1,2.34-2.18A7.57,7.57,0,0,1,276.83,172.66Z" transform="translate(0.14 -61.03)"/><path class="cls-10" d="M288.68,189.23a2.85,2.85,0,0,1,2.84-.49,4.85,4.85,0,0,1,2.31,1.87,4.94,4.94,0,0,1,.81,1.74,3.74,3.74,0,0,1-6.89,2.68" transform="translate(0.14 -61.03)"/><path class="cls-1" d="M282.2,196a3.53,3.53,0,0,1-6.66-2.12" transform="translate(0.14 -61.03)"/><path class="cls-2" d="M280,203.54a6.91,6.91,0,0,0,2.4,0,13.58,13.58,0,0,0-3.74,5.22v-.07a12.52,12.52,0,0,0-1.5-5.16v0l-.09-.07a3.63,3.63,0,0,0-.49-.47l.31,0A14.71,14.71,0,0,0,280,203.54Z" transform="translate(0.14 -61.03)"/><path class="cls-2" d="M290.41,191.36a1.71,1.71,0,0,1,1.3,1.21,1.39,1.39,0,0,1-.71,1.58,2.29,2.29,0,0,1-.73.17v-.22" transform="translate(0.14 -61.03)"/><path class="cls-1" d="M283.32,370.81q-3.15-21.46-4.92-43.11" transform="translate(0.14 -61.03)"/><path class="cls-1" d="M252.75,252.59l5.31-12.39" transform="translate(0.14 -61.03)"/><path class="cls-1" d="M313.4,260.8a52.43,52.43,0,0,1-5-13.18" transform="translate(0.14 -61.03)"/><path class="cls-1" d="M408.05,371.53q3,13.41,6.1,26.81c1.06,4.63,2.12,9.33,1.93,14.08-.16,4-1.21,7.92-1.9,11.88a67.65,67.65,0,0,0,3.33,35.28" transform="translate(0.14 -61.03)"/><path class="cls-2" d="M414.25,414.65a4,4,0,0,1-3.35-.55c-2.12-1.48-2.17-4.5-2.52-7.06a19.61,19.61,0,0,0-3.13-8.2c-2.41-3.6-6-6.32-8.39-9.91-5.57-8.27,2.2-15.65,1.67-24.28-.85-13.62-16.89-12.3-21-23.5-2-5.46-1.55-11.51-.44-17.21s2.86-11.29,3.39-17.08-.16-11.5-.12-17.26c0-3.63.39-7.39,2.21-10.52s5.44-5.47,9-4.78c5.22,1,7.33,7.28,8,12.57a90.43,90.43,0,0,1,.15,20.67c-.57,5.34-1.55,11,.88,15.83,3.22,6.35,10.76,7.81,14.6,13.75,5.13,7.92,7.67,17.32,5.35,26.68-2.9,11.16-.94,20.33.18,31.9.52,5.35.93,11.17-2,15.67A7.84,7.84,0,0,1,414.25,414.65Z" transform="translate(0.14 -61.03)"/><path class="cls-5" d="M421.7,372.39a14.59,14.59,0,0,1-8.31-7.73c-3.6-7.44-2.94-15,.47-22.3,3-6.43,8.89-10.41,9.68-17.66.84-7.73-2.12-14.94-4.65-22.08-2.31-6.54-4.09-14-1.67-20.8,2.28-6.4,6.71-9.78,11.91-13.83a66.77,66.77,0,0,0,19.94-25.6c2.77-6.29,7.17-14.53,13.81-12.75a9,9,0,0,1,4.33,2.93c7.5,8.71,1.49,22.38-6.47,30.68s-18.29,15.92-20,27.29c-2,13,8.46,25.91,5.33,38.71-2.43,9.93-15.2,17.2-14.89,27.53.2,6.39,4.1,17.34-7.58,16A10.84,10.84,0,0,1,421.7,372.39Z" transform="translate(0.14 -61.03)"/><path class="cls-1" d="M416.54,456.39c2.66-4.92,5.35-9.91,6.63-15.35a63,63,0,0,0,1.28-11.47c.14-2.67-.11-3.39.44-6,3.08-14.62,6.14-30,1.88-44.28-2-6.87-5.74-13.34-6.25-20.48-.71-9.77,4.61-18.85,9.74-27.2" transform="translate(0.14 -61.03)"/><polygon class="cls-9" points="436.18 449.94 397.43 449.94 392.79 376.68 440.81 376.68 436.18 449.94"/><line class="cls-1" x1="386.63" y1="449.94" x2="546.39" y2="449.94"/><circle class="cls-1" cx="469.64" cy="359.14" r="24.96"/><circle class="cls-1" cx="466.07" cy="359.14" r="24.96"/><polygon class="cls-2" points="523.13 472.24 516 465.11 508.86 472.24 437.55 467.05 444.68 355.58 508.86 355.58 523.13 472.24"/><path class="cls-6" d="M508.73,533.27h-81.6a3.75,3.75,0,0,1-3.74-4l6.89-112.68H501.6Z" transform="translate(0.14 -61.03)"/><circle class="cls-1" cx="519.56" cy="377.09" r="24.96"/><circle class="cls-1" cx="515.99" cy="377.09" r="24.96"/><polygon class="cls-2" points="573.05 473.37 558.78 473.37 487.47 473.37 494.6 373.53 558.78 373.53 573.05 473.37"/><polygon class="cls-9" points="558.78 473.37 473.21 473.37 480.34 373.53 551.65 373.53 558.78 473.37"/><ellipse class="cls-1" cx="477.72" cy="393.92" rx="18.81" ry="20.56"/><ellipse class="cls-1" cx="475.04" cy="393.92" rx="18.81" ry="20.56"/><polygon class="cls-2" points="523.64 473.21 507.28 473.21 453.54 473.21 458.92 390.99 512.89 390.99 523.64 473.21"/><path class="cls-5" d="M507.15,534.24H446.28a3.4,3.4,0,0,1-3.39-3.62L448,452h53.74Z" transform="translate(0.14 -61.03)"/><rect class="cls-10" x="458.64" y="427.87" width="32.39" height="7.14"/><path class="cls-2" d="M240.07,119h-12.7a2.1,2.1,0,0,1-2.07-1.63l-2.55-12.73a.84.84,0,0,0-.7-.62l-4.29-.6.18-1.25,4.28.6a2.1,2.1,0,0,1,1.77,1.6l.89,4.46h16.21a2.14,2.14,0,0,1,1.63.76,2.06,2.06,0,0,1,.46,1.67l-1,6A2.11,2.11,0,0,1,240.07,119Zm-14.93-8.9,1.4,7a.85.85,0,0,0,.83.63h12.7a.84.84,0,0,0,.84-.69l1-6a.82.82,0,0,0-.18-.65.86.86,0,0,0-.66-.3Z" transform="translate(0.14 -61.03)"/><ellipse class="cls-2" cx="228.97" cy="59.89" rx="1.89" ry="1.85"/><ellipse class="cls-2" cx="236.54" cy="59.89" rx="1.89" ry="1.85"/><path class="cls-2" d="M196.32,117.49a7.23,7.23,0,1,1,7.23-7.23A7.23,7.23,0,0,1,196.32,117.49Zm0-13.19a6,6,0,1,0,6,6A6,6,0,0,0,196.32,104.3Z" transform="translate(0.14 -61.03)"/><rect class="cls-2" x="202.03" y="114.86" width="1.27" height="7.98" transform="translate(-27.89 102.34) rotate(-41.31)"/><rect class="cls-2" x="71.19" y="111.64" width="16.93" height="1.6" transform="translate(-0.05 -60.9) rotate(-0.09)"/><rect class="cls-2" x="71.18" y="106.26" width="16.93" height="1.6" transform="translate(-0.04 -60.9) rotate(-0.09)"/><rect class="cls-2" x="71.2" y="117.02" width="16.93" height="1.6" transform="translate(-0.06 -60.9) rotate(-0.09)"/><path class="cls-9" d="M119,104.33c-1.82.53-3.16,3-3.16,3s-1.35-2.48-3.17-3c-5.27-1.5-7.63,3.11-5.62,7.38,2,4.12,8.81,9.11,8.81,9.11s6.84-5,8.78-9.14C126.67,107.42,124.29,102.83,119,104.33Z" transform="translate(0.14 -61.03)"/><rect class="cls-1" x="377.55" y="23.34" width="168.64" height="98.8" rx="3.15"/><rect class="cls-2" x="377.55" y="95.73" width="168.64" height="11.92"/><rect class="cls-2" x="388.62" y="32.98" width="28.43" height="18.3" rx="1.63"/><path class="cls-2" d="M519.26,104.75A10.74,10.74,0,1,1,508.52,94,10.74,10.74,0,0,1,519.26,104.75Z" transform="translate(0.14 -61.03)"/><path class="cls-9" d="M533.84,104.75A10.74,10.74,0,1,1,523.1,94,10.74,10.74,0,0,1,533.84,104.75Z" transform="translate(0.14 -61.03)"/><polyline class="cls-1" points="377.38 95.92 391.73 85.87 406.38 95.92 421.84 85.87 434.3 95.92 447.85 85.87 461.38 95.92 474.58 85.87 487.89 95.92 502.93 85.87 516.65 95.92 530.8 85.87 546.35 95.92"/><polyline class="cls-1" points="377.38 88.98 391.73 78.93 406.38 88.98 421.84 78.93 434.3 88.98 447.85 78.93 461.38 88.98 474.58 78.93 487.89 88.98 502.93 78.93 516.65 88.98 530.8 78.93 546.35 88.98"/><polyline class="cls-1" points="377.38 82.04 391.73 71.99 406.38 82.04 421.84 71.99 434.3 82.04 447.85 71.99 461.38 82.04 474.58 71.99 487.89 82.04 502.93 71.99 516.65 82.04 530.8 71.99 546.35 82.04"/><line class="cls-1" x1="183.89" y1="477.78" x2="357.49" y2="477.78"/><line class="cls-1" x1="414.43" y1="473.21" x2="600.14" y2="473.21"/></svg>